<svg width="65" height="53" fill="none" xmlns="http://www.w3.org/2000/svg">
  <path d="M61.7478 16.0282h-6.2376L53.7594 2.81791c-.2507-1.77366-1.8795-3.017208-3.6565-2.7914526L2.82387 6.29231c-.85681.11491-1.63272.56615-2.156188 1.25426-.525768.68349-.7553167 1.54925-.6374255 2.40335L4.01959 40.0358c.21193 1.6202 1.59316 2.8317 3.22724 2.8305.13998-.0003.27969-.0098.41844-.0282l3.13183-.4131v7.209c0 1.7962 1.456 3.2522 3.2522 3.2522h47.6985c1.7962 0 3.2522-1.456 3.2522-3.2522V19.2804c0-1.7961-1.456-3.2522-3.2522-3.2522zm-8.4242 0h-8.4654l8.3191-1.1025.1463 1.1025zM2.17669 9.65723c-.03808-.28294.03916-.56941.21464-.79462.1744-.23185.43444-.38416.72199-.42278L50.3837 2.17614c.5944-.07534 1.1397.33931 1.226.93229l.4282 3.22833L2.60489 12.8921l-.4282-3.23487zM10.7971 40.2385l-3.41043.4499c-.59352.0788-1.13853-.3384-1.21739-.9319v-.0004L3.75074 21.481l7.04636-.9312v19.6887zm.1431-21.8936l-7.47998.9865-.56914-4.2886L52.3241 8.48644l.3252 2.48466.2407 1.805-24.5311 3.2521H14.0493c-1.4337.0026-2.6966.9436-3.1091 2.3167zM62.8319 49.634c0 .5987-.4854 1.0841-1.0841 1.0841H14.0493c-.5987 0-1.0841-.4854-1.0841-1.0841V19.3129c0-.0108.0055-.0217.0055-.0325 0-.5987.4853-1.084 1.084-1.084h47.6931c.5987 0 1.0841.4853 1.0841 1.084V49.634z" fill="url(#paint0_linear)"/>
  <path d="M47.5963 32.3131c.4358-.3217.8211-.7068 1.1426-1.1426 1.7824 2.3992 5.1722 2.8992 7.5714 1.1168 2.3991-1.7824 2.8991-5.1722 1.1167-7.5714-1.0227-1.3764-2.6371-2.1868-4.3518-2.1843-1.7129.0047-3.3217.8217-4.3363 2.2017-1.7776-2.4087-5.1711-2.9202-7.5798-1.1426-2.4087 1.7776-2.9202 5.1711-1.1426 7.5798 1.7776 2.4086 5.1712 2.9202 7.5798 1.1426zm5.4789-7.6134c1.7961 0 3.2521 1.456 3.2521 3.2521 0 1.7962-1.456 3.2522-3.2521 3.2522-1.7962 0-3.2522-1.456-3.2522-3.2522 0-1.7961 1.456-3.2521 3.2522-3.2521zm-8.6725 0c1.7961 0 3.2522 1.456 3.2522 3.2521 0 1.7962-1.4561 3.2522-3.2522 3.2522-1.7961 0-3.2522-1.456-3.2522-3.2522 0-1.7961 1.4561-3.2521 3.2522-3.2521z" fill="url(#paint1_linear)"/>
  <path d="M19.4699 23.6172h-2.1681v2.1681h2.1681v-2.1681z" fill="url(#paint2_linear)"/>
  <path d="M34.6464 23.6172H21.6377v2.1681h13.0087v-2.1681z" fill="url(#paint3_linear)"/>
  <path d="M34.6467 27.9531H17.3018v2.1681h17.3449v-2.1681z" fill="url(#paint4_linear)"/>
  <path d="M57.4119 37.709H18.3858c-.5987 0-1.084.4854-1.084 1.084v6.5044c0 .5987.4853 1.084 1.084 1.084h39.0261c.5987 0 1.0841-.4853 1.0841-1.084V38.793c0-.5986-.4853-1.084-1.0841-1.084zm-1.0841 6.5043H19.4699v-4.3362h36.8579v4.3362z" fill="url(#paint5_linear)"/>
  <defs>
    <linearGradient id="paint0_linear" x1="-12.1367" y1="-2.8e-7" x2="73.3983" y2="31.9123" gradientUnits="userSpaceOnUse">
      <stop stop-color="#4BD8B5"/>
      <stop offset="1" stop-color="#49D6DF"/>
    </linearGradient>
    <linearGradient id="paint1_linear" x1="35.3089" y1="22.5312" x2="57.8516" y2="34.8636" gradientUnits="userSpaceOnUse">
      <stop stop-color="#4BD8B5"/>
      <stop offset="1" stop-color="#49D6DF"/>
    </linearGradient>
    <linearGradient id="paint2_linear" x1="16.8969" y1="23.6172" x2="19.8729" y2="24.5206" gradientUnits="userSpaceOnUse">
      <stop stop-color="#4BD8B5"/>
      <stop offset="1" stop-color="#49D6DF"/>
    </linearGradient>
    <linearGradient id="paint3_linear" x1="19.2087" y1="23.6172" x2="23.7257" y2="31.8442" gradientUnits="userSpaceOnUse">
      <stop stop-color="#4BD8B5"/>
      <stop offset="1" stop-color="#49D6DF"/>
    </linearGradient>
    <linearGradient id="paint4_linear" x1="14.0631" y1="27.9531" x2="17.8329" y2="37.1079" gradientUnits="userSpaceOnUse">
      <stop stop-color="#4BD8B5"/>
      <stop offset="1" stop-color="#49D6DF"/>
    </linearGradient>
    <linearGradient id="paint5_linear" x1="9.61003" y1="37.709" x2="29.666" y2="66.6278" gradientUnits="userSpaceOnUse">
      <stop stop-color="#4BD8B5"/>
      <stop offset="1" stop-color="#49D6DF"/>
    </linearGradient>
  </defs>
</svg>
