<svg width="70" height="57" fill="none" xmlns="http://www.w3.org/2000/svg">
  <g clip-path="url(#clip0)">
    <path d="M2.25669 48.2315c0 .611-.49536 1.1064-1.10637 1.1064-.611015 0-1.1063747-.4954-1.1063747-1.1064S.539305 47.1251 1.15032 47.1251c.61101 0 1.10637.4954 1.10637 1.1064zM41.0298 30.1017c-1.5427 1.1589-3.3779 1.7713-5.3074 1.7713-.6223 0-1.1974-.2065-1.6601-.5547-.4627.3482-1.0377.5547-1.66.5547-2.0044 0-3.8964-.6561-5.4714-1.8973-.48-.3784-.5625-1.0742-.1842-1.5543.3782-.4799 1.074-.5626 1.5541-.1842 1.1809.9306 2.599 1.4224 4.1015 1.4224.3051 0 .5533-.2482.5533-.5533v-1.8002c-1.9071-.4927-3.3201-2.2278-3.3201-4.2867 0-1.2205.9929-2.2134 2.2134-2.2134h4.4268c1.2205 0 2.2134.9929 2.2134 2.2134 0 2.0589-1.4129 3.794-3.3201 4.2867v1.8002c0 .3051.2482.5533.5534.5533 1.4462 0 2.8218-.459 3.978-1.3275.4887-.3673 1.1825-.2686 1.5495.2201.3671.4888.2686 1.1826-.2201 1.5495zm-6.9675-4.8689c1.2205 0 2.2134-.9929 2.2134-2.2134h-4.4268c0 1.2205.9929 2.2134 2.2134 2.2134zm-3.819-8.4192l-1.6366 2.8346c-1.5809 2.6036-4.5797 2.9356-6.6104 1.7712-2.0117-1.1535-2.6988-3.7365-1.5393-5.7447l1.5259-2.643c1.3645-2.3635 4.3978-3.17641 6.7616-1.8117 1.9553 1.1289 2.6276 3.6381 1.4988 5.5936zm-3.5534 1.7279l.6781-1.1746h-.8596c-1.4736 0-1.4736-2.2134 0-2.2134h2.0287c.1623-.7745-.1712-1.6118-.8994-2.0167-1.3402-.7453-2.9753-.3098-3.7381 1.0017l-1.5259 2.6429c-.5492.9513-.2188 2.1663.7292 2.7212 1.5132.8857 3.1036-.0354 3.587-.9611zm19.4383 2.8779c-2.1806 1.2394-5.1116.7361-6.6104-1.7712l-1.6366-2.8346c-1.1289-1.9555-.4565-4.4647 1.4988-5.5936 2.3639-1.36471 5.3971-.5518 6.7616 1.8117l1.5259 2.643c1.1595 2.0082.4768 4.5989-1.5393 5.7447zm-.3775-4.638l-1.5259-2.6429c-.7544-1.3067-2.4313-1.7561-3.7381-1.0017-.7216.4165-1.0618 1.2422-.8994 2.0167h2.0287c1.4736 0 1.4736 2.2134 0 2.2134h-.8596l.6781 1.1746c.553 1.0008 2.0917 1.804 3.5869.9611.9571-.5394 1.2786-1.77.7293-2.7212zm7.0703-1.0497c2.0453 4.2819 1.8662 9.199-.5409 13.3683-.4753.823-1.0198 1.5848-1.623 2.2814 1.897 6.9936 2.031 14.3825.3822 21.4108-.4734 2.0186-2.247 3.4283-4.3131 3.4283h-2.4313c-3.6511 0-7.2217-.8308-10.4556-2.3954-.8385 1.0859-2.4353 2.3954-4.8191 2.3954H8.22967c-2.15265 0-4.45525-.8801-6.0924-2.7214-.40516-.4557-.36355-1.1499.08522-1.5627.47732-.4391 1.18771-.3338 1.56266.0852 1.13094 1.2637 2.75458 1.9855 4.44673 1.9855h2.26052c-1.96957-2.6239-2.73098-6.0475-1.89166-9.2909 1.44376-5.5791 6.01096-7.8564 9.30746-8.3297-1.5506-3.2107-2.7094-6.6113-3.4316-10.1251-6.36889 3.6723-10.67219 9.8622-11.89333 17.191-.08964.5368-.59031 1.0085-1.27381.9108-.574601-.0822-1.015953-.6497-.90971-1.2739C2.2351 32.3069 9.41528 26.4556 14.0484 23.9619c-.4087-2.7707.0075-5.6184 1.2551-8.2302-2.0918-1.5913-3.3555-4.0922-3.3555-6.75159 0-4.67426 3.8027-8.477114 8.477-8.477114 1.8816 0 3.6836.618204 5.1596 1.754124C28.1001.796162 31.0007 0 34.0623 0c3.0617 0 5.9624.796051 8.4777 2.25712C44.016 1.12131 45.818.503107 47.6995.503107c4.6743 0 8.477 3.802743 8.477 8.477113 0 2.65918-1.2637 5.16018-3.3555 6.75148zm-36.4353-1.9686l3.081-5.33634c1.0989-1.90342 2.513-3.5285 4.1561-4.83053-.96-.57228-2.0589-.87983-3.1976-.87983-3.4538 0-6.2636 2.80992-6.2636 6.26371-.0001 1.85369.8316 3.60319 2.2241 4.78299zm15.4712 38.9842c-1.1758-.7125-2.2953-1.5277-3.3432-2.4426-3.8527-3.3643-7.0597-7.3658-9.5008-11.7831-3.8984.1425-7.3169 2.8896-8.2633 6.7248-.78872 3.1961.2853 6.5918 2.7403 8.7607h15.5313c1.1025 0 2.1214-.4661 2.8357-1.2598zm12.438 1.2598c.9326 0 1.2777-.9579 1.0116-1.5579-2.719-6.1319-6.6592-11.5883-11.6466-16.1494h-5.345c-3.6629 0-7.0554-1.3341-9.6519-3.6944 2.4147 6.122 6.2843 11.6465 11.3067 16.0322 3.9653 3.4626 9.0527 5.3695 14.3252 5.3695zm4.5296-20.8556c-2.5031 2.0189-5.6446 3.1483-9.0149 3.1483h-2.9487c1.1232 1.1253 2.1886 2.2962 3.1949 3.5112.0282-.156.0575-.3116.0887-.4667.1209-.5992.7048-.9871 1.3036-.8661.5992.1208.987.7044.8661 1.3035-.1654.8205-.2811 1.6532-.3509 2.4818 2.1016 2.8819 3.895 5.9836 5.3652 9.2854.3327.7473.374 1.5728.1384 2.3313.6961-.2466 1.2394-.8343 1.4175-1.5935 1.4719-6.274 1.4463-12.8512-.0599-19.1352zm1.5388-17.3444l-3.6222-6.27364C44.0947 4.94995 39.355 2.2134 34.0623 2.2134c-5.2927 0-10.0325 2.73655-12.6788 7.32018l-3.6221 6.27362c-2.2028 3.8154-2.2028 8.371 0 12.1863 2.2027 3.8151 6.1479 6.0929 10.5535 6.0929h11.4947c4.4056 0 8.3509-2.2778 10.5535-6.0931 2.2028-3.8152 2.2028-8.3708.0002-12.1862zm3.5998-6.82688c0-3.45379-2.8098-6.26371-6.2636-6.26371-1.1385 0-2.2375.30755-3.1974.87972 1.643 1.30203 3.0569 2.927 4.1558 4.83053l3.081 5.33634c1.3924-1.1797 2.2242-2.9293 2.2242-4.78288z" fill="url(#paint0_linear)"/>
    <g clip-path="url(#clip1)">
      <path d="M60.6557 35.6347c.1809.0473.3374-.0668.3478-.2534 0 0 .1288-2.3104.1885-2.9479.0502-.5367.3953-3.2569.3953-3.2569.0236-.1854-.1097-.3257-.2959-.3118 0 0-.6893.0516-1.0276.0199-.3399-.0319-1.0114-.2114-1.0114-.2114-.1806-.0482-.3376.0649-.3489.2515 0 0-.1641 2.7046-.2136 3.2306-.0609.6482-.3672 2.9744-.3672 2.9744-.0243.1854.108.3245.2943.3093 0 0 .6367-.052.9582-.0241.3576.0311 1.0805.2198 1.0805.2198z" fill="url(#paint1_linear)"/>
      <path d="M59.9248 43.4238c.1809.0472.3374-.0668.3478-.2534 0 0 .1287-2.3105.1884-2.9479.0503-.5367.3954-3.2569.3954-3.2569.0236-.1855-.1097-.3258-.296-.3118 0 0-.6892.0516-1.0275.0199-.3399-.0319-1.0115-.2114-1.0115-.2114-.1805-.0482-.3376.0648-.3489.2514 0 0-.1641 2.7047-.2135 3.2307-.0609.6482-.3673 2.9745-.3673 2.9745-.0242.1854.1081.3243.2943.3093 0 0 .6368-.0522.9582-.0241.3576.031 1.0806.2197 1.0806.2197z" fill="url(#paint2_linear)"/>
      <path d="M59.194 51.2148c.1808.0471.3373-.0668.3477-.2534 0 0 .1288-2.3105.1884-2.9479.0503-.5366.3954-3.2569.3954-3.2569.0236-.1854-.1097-.3257-.2961-.3118 0 0-.6891.0515-1.0275.0199-.3399-.0319-1.0113-.2114-1.0113-.2114-.1806-.0483-.3377.0649-.349.2515 0 0-.164 2.7046-.2135 3.2306-.0609.6481-.3673 2.9744-.3673 2.9744-.0243.1855.1081.3245.2943.3093 0 0 .6368-.0521.9583-.0241.3574.0311 1.0806.2198 1.0806.2198z" fill="url(#paint3_linear)"/>
      <path d="M64.1455 39.0059c-1.0957.9928-2.4728 1.3709-2.6191 1.243-.1488-.1299.2533-1.3596 1.3491-2.3524 1.0958-.9928 2.4705-1.3729 2.6191-1.243.1591.1391-.2534 1.3596-1.3491 2.3524z" fill="url(#paint4_linear)"/>
      <path d="M64.3972 41.7653c-1.1705.0633-2.1609-.4936-2.1734-.6758-.0128-.185.8949-.8416 2.0655-.9048 1.1707-.0633 2.1608.4907 2.1735.6757.0135.1981-.8949.8416-2.0656.9049z" fill="url(#paint5_linear)"/>
      <path d="M62.0888 43.3814c-.5192-.8253-.5338-1.6962-.4121-1.7569.1234-.0615.9486.4061 1.4678 1.2312.5192.8251.5358 1.6952.4121 1.7568-.1324.0659-.9486-.406-1.4678-1.2311z" fill="url(#paint6_linear)"/>
      <path d="M51.4913 42.4424c.1822-.0416.2683-.215.1914-.3853 0 0-.8447-1.8704-1.0621-2.405-.1831-.4501-1.0274-2.7372-1.0274-2.7372-.0647-.1753-.2477-.2383-.4066-.1399 0 0-.501.3103-.7848.4259-.285.1159-.8639.2446-.8639.2446-.1825.0405-.2695.2133-.1935.384 0 0 .9806 2.2002 1.1601 2.6414.221.5435.9324 2.4995.9324 2.4995.0639.1756.2457.2379.4039.1384 0 0 .4591-.2887.7277-.4001.2988-.1238.9228-.2663.9228-.2663z" fill="url(#paint7_linear)"/>
      <path d="M54.1481 48.9757c.1822-.0416.2683-.2151.1913-.3854 0 0-.8446-1.8704-1.062-2.4051-.1831-.4501-1.0274-2.7371-1.0274-2.7371-.0647-.1753-.2477-.2382-.4066-.14 0 0-.501.3102-.7849.426-.285.116-.8639.2446-.8639.2446-.1824.0407-.2695.2135-.1934.3841 0 0 .9806 2.2001 1.16 2.6413.2211.5434.9325 2.4994.9325 2.4994.0639.1756.2456.2379.4038.1384 0 0 .4592-.2887.7278-.4001.2988-.1236.9228-.2661.9228-.2661z" fill="url(#paint8_linear)"/>
      <path d="M56.8052 55.5069c.1823-.0415.2683-.2149.1913-.3853 0 0-.8446-1.8705-1.0619-2.4051-.1831-.4501-1.0274-2.7371-1.0274-2.7371-.0648-.1753-.2478-.2383-.4066-.14 0 0-.501.3103-.7849.426-.285.116-.8639.2446-.8639.2446-.1825.0405-.2695.2134-.1934.384 0 0 .9806 2.2003 1.16 2.6413.2211.5435.9326 2.4995.9326 2.4995.0638.1757.2455.238.4037.1385 0 0 .4591-.2888.7277-.4001.2988-.1237.9228-.2663.9228-.2663z" fill="url(#paint9_linear)"/>
      <path d="M47.2393 45.6504c.9198-.5656 1.9884-.6188 2.0852-.4971.0982.1231-.326.9854-1.2458 1.551-.9197.5655-1.9869.6207-2.0851.4971-.1053-.132.3258-.9853 1.2457-1.551z" fill="url(#paint10_linear)"/>
      <path d="M48.0053 43.1077c.77.5103 1.0552 1.319.9536 1.4374-.1032.1203-1.065.0999-1.835-.4103-.7702-.5102-1.0569-1.3171-.9537-1.4373.1105-.1288 1.065-.1 1.8351.4102z" fill="url(#paint11_linear)"/>
    </g>
  </g>
  <defs>
    <linearGradient id="paint0_linear" x1="-10.4371" y1="-3e-7" x2="66.6315" y2="23.3583" gradientUnits="userSpaceOnUse">
      <stop stop-color="#4BD8B5"/>
      <stop offset="1" stop-color="#49D6DF"/>
    </linearGradient>
    <linearGradient id="paint1_linear" x1="57.7092" y1="28.6621" x2="62.5145" y2="29.3452" gradientUnits="userSpaceOnUse">
      <stop stop-color="#4BD8B5"/>
      <stop offset="1" stop-color="#49D6DF"/>
    </linearGradient>
    <linearGradient id="paint2_linear" x1="56.9783" y1="36.4512" x2="61.7835" y2="37.1343" gradientUnits="userSpaceOnUse">
      <stop stop-color="#4BD8B5"/>
      <stop offset="1" stop-color="#49D6DF"/>
    </linearGradient>
    <linearGradient id="paint3_linear" x1="56.2473" y1="44.2422" x2="61.0526" y2="44.9253" gradientUnits="userSpaceOnUse">
      <stop stop-color="#4BD8B5"/>
      <stop offset="1" stop-color="#49D6DF"/>
    </linearGradient>
    <linearGradient id="paint4_linear" x1="60.7439" y1="36.6289" x2="66.1744" y2="38.4524" gradientUnits="userSpaceOnUse">
      <stop stop-color="#4BD8B5"/>
      <stop offset="1" stop-color="#49D6DF"/>
    </linearGradient>
    <linearGradient id="paint5_linear" x1="61.4321" y1="40.1797" x2="65.273" y2="43.2872" gradientUnits="userSpaceOnUse">
      <stop stop-color="#4BD8B5"/>
      <stop offset="1" stop-color="#49D6DF"/>
    </linearGradient>
    <linearGradient id="paint6_linear" x1="61.2391" y1="41.6191" x2="64.1281" y2="42.2058" gradientUnits="userSpaceOnUse">
      <stop stop-color="#4BD8B5"/>
      <stop offset="1" stop-color="#49D6DF"/>
    </linearGradient>
    <linearGradient id="paint7_linear" x1="46.4965" y1="36.7285" x2="52.8115" y2="38.039" gradientUnits="userSpaceOnUse">
      <stop stop-color="#4BD8B5"/>
      <stop offset="1" stop-color="#49D6DF"/>
    </linearGradient>
    <linearGradient id="paint8_linear" x1="49.1532" y1="43.2617" x2="55.4683" y2="44.5722" gradientUnits="userSpaceOnUse">
      <stop stop-color="#4BD8B5"/>
      <stop offset="1" stop-color="#49D6DF"/>
    </linearGradient>
    <linearGradient id="paint9_linear" x1="51.8104" y1="49.793" x2="58.1254" y2="51.1034" gradientUnits="userSpaceOnUse">
      <stop stop-color="#4BD8B5"/>
      <stop offset="1" stop-color="#49D6DF"/>
    </linearGradient>
    <linearGradient id="paint10_linear" x1="45.3506" y1="45.0996" x2="49.4669" y2="47.0468" gradientUnits="userSpaceOnUse">
      <stop stop-color="#4BD8B5"/>
      <stop offset="1" stop-color="#49D6DF"/>
    </linearGradient>
    <linearGradient id="paint11_linear" x1="45.6217" y1="42.6328" x2="49.1871" y2="44.1844" gradientUnits="userSpaceOnUse">
      <stop stop-color="#4BD8B5"/>
      <stop offset="1" stop-color="#49D6DF"/>
    </linearGradient>
    <clipPath id="clip0">
      <path fill="#fff" d="M0 0h70v56.2205H0z"/>
    </clipPath>
    <clipPath id="clip1">
      <path fill="#fff" transform="translate(42.4409 28.6621)" d="M0 0h27.559v27.559H0z"/>
    </clipPath>
  </defs>
</svg>
