<svg width="60" height="60" fill="none" xmlns="http://www.w3.org/2000/svg">
  <path d="M8.20312 38.2031c-.64687 0-1.17187.525-1.17187 1.1719 0 .6469.525 1.1719 1.17187 1.1719.64688 0 1.17188-.525 1.17188-1.1719 0-.6469-.525-1.1719-1.17188-1.1719z" fill="url(#paint0_linear)"/>
  <path d="M57.6562 54.1432V10.5445C59.1161 9.44566 60 7.70848 60 5.85938 60 2.62852 57.3715 0 54.1406 0c-3.2308 0-5.8594 2.62852-5.8594 5.85938 0 .95296.2368 1.87546.6639 2.6973C43.1437 5.96133 36.6686 4.60137 30 4.60137c-6.6687 0-13.1439 1.35996-18.9451 3.95531.4271-.82184.6639-1.74434.6639-2.6973C11.7188 2.62852 9.09023 0 5.85938 0 2.62852 0 0 2.62852 0 5.85938c0 1.8491.883945 3.58628 2.34375 4.68512v43.5986C.849727 55.2669 0 56.9846 0 58.8281c0 .6473.524648 1.1602 1.17188 1.1602h9.36632c.0029 0 .006.0003.0089.0003.5061 0 .9608-.3187 1.1159-.8034l.0006-.0019c.0011-.0038.0024-.0076.0036-.0115l11.2041-35.0234c4.6788-1.0366 9.578-1.0366 14.257 0l11.2042 35.0234c.0011.0039.0024.0077.0036.0115l.0006.002c.1523.4765.6024.8035 1.1158.8035.003 0 .006-.0004.0089-.0004h9.3667c.6471 0 1.1719-.5129 1.1719-1.1602 0-1.8438-.8501-3.5615-2.3438-4.685zM5.85938 2.34375c1.93851 0 3.51562 1.57711 3.51562 3.51563 0 1.25132-.67395 2.41851-1.7577 3.04558-.53273.3075-1.14058.47004-1.75792.47004-.61711 0-1.22461-.16242-1.75723-.46957-1.08457-.62777-1.7584-1.79496-1.7584-3.04605 0-1.93852 1.57711-3.51563 3.51563-3.51563zM2.5432 57.6562c.48493-1.3737 1.79684-2.3437 3.31618-2.3437 1.54136 0 2.83921.9925 3.31617 2.3437H2.5432zm7.9286-2.4392c-.3238-.4118-.66754-.7511-1.0968-1.0738V44.0625c0-.6472-.52465-1.1719-1.17188-1.1719-.64722 0-1.17187.5247-1.17187 1.1719v9.0254c-.38438-.0784-.77695-.1191-1.17187-.1191-.39493 0-.78739.0407-1.17188.1192V11.5996c.38438.0784.77695.1192 1.17188.1192.39492 0 .78749-.0408 1.17187-.1192v23.0879c0 .6472.52465 1.1719 1.17187 1.1719.64723 0 1.17188-.5247 1.17188-1.1719v-3.8583c3.1056-2.6644 6.8009-4.6997 10.8054-5.9611L10.4718 55.217zm40.1532-1.0739c-.4373.3289-.7792.6701-1.0968 1.0739l-9.7087-30.3488c4.0044 1.2614 7.6998 3.2968 10.8055 5.9611v23.3138zm0-34.7551c-.9859-.5678-1.9958-1.0941-3.0199-1.5721-.587-.2741-1.2839-.0202-1.5577.5661-.2737.5864-.0203 1.2838.5662 1.5576 1.373.641 2.7196 1.3735 4.0113 2.1814v5.6999c-12.0069-9.0786-29.2896-9.0432-41.2499-.0001V22.121c1.2916-.8079 2.6384-1.5404 4.0113-2.1814.5864-.2738.8399-.9712.5662-1.5576-.2738-.5866-.9714-.8399-1.5576-.5661-1.0241.4781-2.0341 1.0043-3.0199 1.5721v-7.3964c12.4276-6.67961 28.8221-6.67961 41.25 0v7.3964zm3.5156-17.04425c1.9385 0 3.5156 1.57711 3.5156 3.51563 0 1.25132-.6739 2.41851-1.7576 3.04558-.5328.3075-1.1405.47004-1.758.47004-.617 0-1.2245-.1623-1.7568-.46945-1.0849-.62766-1.7588-1.79485-1.7588-3.04617 0-1.93852 1.5771-3.51563 3.5156-3.51563zm1.1719 9.25585v41.4883c-.3844-.0784-.7768-.1191-1.1719-.1191-.3949 0-.7875.0407-1.1718.1192V11.5996c.3843.0784.7768.1192 1.1718.1192.3949 0 .7875-.0408 1.1719-.1192zm-4.488 46.0566c.4858-1.3768 1.8-2.3437 3.3161-2.3437 1.5417 0 2.8395.9929 3.3162 2.3437h-6.6323z" fill="url(#paint1_linear)"/>
  <path d="M22.9688 16.4062h-1.8584l2.687-2.6869c.3351-.3352.4353-.8393.2539-1.2772-.1813-.4378-.6086-.7233-1.0825-.7233h-4.6875c-.6473 0-1.1719.5246-1.1719 1.1718 0 .6473.5246 1.1719 1.1719 1.1719h1.8583l-2.687 2.687c-.3351.3351-.4353.8393-.2539 1.2771.1814.4379.6086.7234 1.0827.7234h4.6875c.6472 0 1.1718-.5246 1.1718-1.1719 0-.6472-.5247-1.1719-1.1719-1.1719z" fill="url(#paint2_linear)"/>
  <path d="M26.4844 15.2344c0 1.9385 1.5771 3.5156 3.5156 3.5156 1.9385 0 3.5156-1.5771 3.5156-3.5156 0-1.9385-1.5771-3.5156-3.5156-3.5156-1.9385 0-3.5156 1.5771-3.5156 3.5156zM30 14.0625c.6462 0 1.1719.5257 1.1719 1.1719 0 .6461-.5257 1.1718-1.1719 1.1718s-1.1719-.5257-1.1719-1.1718c0-.6462.5257-1.1719 1.1719-1.1719z" fill="url(#paint3_linear)"/>
  <path d="M39.375 18.75c1.9385 0 3.5156-1.5771 3.5156-3.5156 0-1.9385-1.5771-3.5156-3.5156-3.5156-1.9385 0-3.5156 1.5771-3.5156 3.5156 0 1.9385 1.5771 3.5156 3.5156 3.5156zm0-4.6875c.6462 0 1.1719.5257 1.1719 1.1719 0 .6461-.5257 1.1718-1.1719 1.1718s-1.1719-.5257-1.1719-1.1718c0-.6462.5257-1.1719 1.1719-1.1719z" fill="url(#paint4_linear)"/>
  <path d="M30 28.8281c-.6471 0-1.1719.5247-1.1719 1.1719v4.6875c0 .6472.5248 1.1719 1.1719 1.1719.6471 0 1.1719-.5247 1.1719-1.1719V30c0-.6472-.5248-1.1719-1.1719-1.1719z" fill="url(#paint5_linear)"/>
  <path d="M30 40.5469c-.6471 0-1.1719.5246-1.1719 1.1719v4.6874c0 .6473.5248 1.1719 1.1719 1.1719.6471 0 1.1719-.5246 1.1719-1.1719v-4.6874c0-.6473-.5248-1.1719-1.1719-1.1719z" fill="url(#paint6_linear)"/>
  <path d="M30 52.9688c-.6471 0-1.1719.5246-1.1719 1.1718v4.6875C28.8281 59.4754 29.3529 60 30 60c.6471 0 1.1719-.5246 1.1719-1.1719v-4.6875c0-.6472-.5248-1.1718-1.1719-1.1718z" fill="url(#paint7_linear)"/>
  <defs>
    <linearGradient id="paint0_linear" x1="6.59363" y1="38.2031" x2="9.81069" y2="39.1797" gradientUnits="userSpaceOnUse">
      <stop stop-color="#4BD8B5"/>
      <stop offset="1" stop-color="#49D6DF"/>
    </linearGradient>
    <linearGradient id="paint1_linear" x1="-11.2031" y1="-3.2e-7" x2="71.151" y2="25.004" gradientUnits="userSpaceOnUse">
      <stop stop-color="#4BD8B5"/>
      <stop offset="1" stop-color="#49D6DF"/>
    </linearGradient>
    <linearGradient id="paint2_linear" x1="15.7965" y1="11.7187" x2="25.4478" y2="14.6485" gradientUnits="userSpaceOnUse">
      <stop stop-color="#4BD8B5"/>
      <stop offset="1" stop-color="#49D6DF"/>
    </linearGradient>
    <linearGradient id="paint3_linear" x1="25.1715" y1="11.7187" x2="34.8227" y2="14.6484" gradientUnits="userSpaceOnUse">
      <stop stop-color="#4BD8B5"/>
      <stop offset="1" stop-color="#49D6DF"/>
    </linearGradient>
    <linearGradient id="paint4_linear" x1="34.5465" y1="11.7187" x2="44.1977" y2="14.6484" gradientUnits="userSpaceOnUse">
      <stop stop-color="#4BD8B5"/>
      <stop offset="1" stop-color="#49D6DF"/>
    </linearGradient>
    <linearGradient id="paint5_linear" x1="28.3905" y1="28.8281" x2="31.8684" y2="29.18" gradientUnits="userSpaceOnUse">
      <stop stop-color="#4BD8B5"/>
      <stop offset="1" stop-color="#49D6DF"/>
    </linearGradient>
    <linearGradient id="paint6_linear" x1="28.3905" y1="40.5469" x2="31.8684" y2="40.8988" gradientUnits="userSpaceOnUse">
      <stop stop-color="#4BD8B5"/>
      <stop offset="1" stop-color="#49D6DF"/>
    </linearGradient>
    <linearGradient id="paint7_linear" x1="28.3905" y1="52.9687" x2="31.8684" y2="53.3207" gradientUnits="userSpaceOnUse">
      <stop stop-color="#4BD8B5"/>
      <stop offset="1" stop-color="#49D6DF"/>
    </linearGradient>
  </defs>
</svg>
